<mxfile host="app.diagrams.net" agent="Mozilla/5.0 (Macintosh; Intel Mac OS X 10_15_7) AppleWebKit/537.36 (KHTML, like Gecko) Chrome/139.0.0.0 Safari/537.36" version="28.2.1">
  <diagram name="Page-1" id="WDNujWzff0iAm4G0ZqXf">
    <mxGraphModel grid="0" page="1" gridSize="10" guides="1" tooltips="1" connect="1" arrows="1" fold="1" pageScale="1" pageWidth="850" pageHeight="1100" math="0" shadow="0">
      <root>
        <mxCell id="0" />
        <mxCell id="1" parent="0" />
        <mxCell id="4" value="- Some motifs survive longer than others&#xa;- Stability biases sampling toward the durable&#xa;- Persistence alone drives initial selection&#xa;- e.g. diamond vs. graphite — same atoms, different lifetimes" style="strokeWidth=2;align=left;verticalAlign=top;whiteSpace=wrap;fontStyle=1;fillColor=#bac8d3;strokeColor=#23445d;" vertex="1" parent="1">
          <mxGeometry x="400" y="460" width="380" height="71" as="geometry" />
        </mxCell>
        <mxCell id="yXcYpfGis_X_akv3bQqg-36" value="" style="endArrow=none;html=1;rounded=0;strokeWidth=20;shadow=0;flowAnimation=0;curved=0;jumpStyle=none;strokeColor=default;startArrow=block;startFill=1;" edge="1" parent="1">
          <mxGeometry width="50" height="50" relative="1" as="geometry">
            <mxPoint x="130" y="80" as="sourcePoint" />
            <mxPoint x="130" y="520" as="targetPoint" />
          </mxGeometry>
        </mxCell>
        <mxCell id="yXcYpfGis_X_akv3bQqg-37" value="" style="endArrow=none;html=1;rounded=0;strokeWidth=20;shadow=0;flowAnimation=0;curved=0;jumpStyle=none;strokeColor=default;startArrow=block;startFill=1;" edge="1" parent="1">
          <mxGeometry width="50" height="50" relative="1" as="geometry">
            <mxPoint x="359" y="80" as="sourcePoint" />
            <mxPoint x="359" y="520" as="targetPoint" />
          </mxGeometry>
        </mxCell>
        <mxCell id="yXcYpfGis_X_akv3bQqg-38" value="&lt;b&gt;&lt;font style=&quot;font-size: 15px;&quot;&gt;&amp;nbsp;Replication&amp;nbsp;&lt;/font&gt;&lt;/b&gt;" style="endArrow=none;html=1;rounded=0;strokeWidth=34;shadow=0;flowAnimation=0;curved=0;jumpStyle=none;strokeColor=default;startArrow=none;startFill=0;endFill=0;convertToSvg=0;" edge="1" parent="1">
          <mxGeometry x="-0.0476" width="50" height="50" relative="1" as="geometry">
            <mxPoint x="350" y="180" as="sourcePoint" />
            <mxPoint x="140" y="180" as="targetPoint" />
            <mxPoint as="offset" />
          </mxGeometry>
        </mxCell>
        <mxCell id="yXcYpfGis_X_akv3bQqg-39" value="&lt;span style=&quot;font-size: 15px;&quot;&gt;&lt;b&gt;&amp;nbsp;Autocatalysis&amp;nbsp;&lt;/b&gt;&lt;/span&gt;" style="endArrow=none;html=1;rounded=0;strokeWidth=34;shadow=0;flowAnimation=0;curved=0;jumpStyle=none;strokeColor=default;startArrow=none;startFill=0;endFill=0;convertToSvg=0;" edge="1" parent="1">
          <mxGeometry x="-0.0476" width="50" height="50" relative="1" as="geometry">
            <mxPoint x="350" y="254.5" as="sourcePoint" />
            <mxPoint x="140" y="254.5" as="targetPoint" />
            <mxPoint as="offset" />
          </mxGeometry>
        </mxCell>
        <mxCell id="yXcYpfGis_X_akv3bQqg-40" value="&lt;span style=&quot;font-size: 15px;&quot;&gt;&lt;b&gt;&amp;nbsp;Catalysis&amp;nbsp;&lt;/b&gt;&lt;/span&gt;" style="endArrow=none;html=1;rounded=0;strokeWidth=34;shadow=0;flowAnimation=0;curved=0;jumpStyle=none;strokeColor=default;startArrow=none;startFill=0;endFill=0;convertToSvg=0;" edge="1" parent="1">
          <mxGeometry x="-0.0476" width="50" height="50" relative="1" as="geometry">
            <mxPoint x="350" y="330" as="sourcePoint" />
            <mxPoint x="140" y="330" as="targetPoint" />
            <mxPoint as="offset" />
          </mxGeometry>
        </mxCell>
        <mxCell id="yXcYpfGis_X_akv3bQqg-41" value="&lt;span style=&quot;font-size: 15px;&quot;&gt;&lt;b&gt;&amp;nbsp;Emergent Function&amp;nbsp;&lt;/b&gt;&lt;/span&gt;" style="endArrow=none;html=1;rounded=0;strokeWidth=34;shadow=0;flowAnimation=0;curved=0;jumpStyle=none;strokeColor=default;startArrow=none;startFill=0;endFill=0;convertToSvg=0;" edge="1" parent="1">
          <mxGeometry x="-0.0476" width="50" height="50" relative="1" as="geometry">
            <mxPoint x="350" y="400" as="sourcePoint" />
            <mxPoint x="140" y="400" as="targetPoint" />
            <mxPoint as="offset" />
          </mxGeometry>
        </mxCell>
        <mxCell id="yXcYpfGis_X_akv3bQqg-42" value="&lt;span style=&quot;font-size: 15px;&quot;&gt;&lt;b&gt;&amp;nbsp;Persistence&amp;nbsp;&lt;/b&gt;&lt;/span&gt;" style="endArrow=none;html=1;rounded=0;strokeWidth=34;shadow=0;flowAnimation=0;curved=0;jumpStyle=none;strokeColor=default;startArrow=none;startFill=0;endFill=0;convertToSvg=0;" edge="1" parent="1">
          <mxGeometry x="-0.0476" width="50" height="50" relative="1" as="geometry">
            <mxPoint x="350" y="480" as="sourcePoint" />
            <mxPoint x="140" y="480" as="targetPoint" />
            <mxPoint as="offset" />
          </mxGeometry>
        </mxCell>
        <mxCell id="yXcYpfGis_X_akv3bQqg-45" value="- Incidental chemical traits affect outcomes&#xa;- Properties begin to bias persistence&#xa;- Function shifts from correlation to causation&#xa;- e.g. carbonyl acidity — properties shift reactivity and outcomes" style="whiteSpace=wrap;strokeWidth=2;align=left;verticalAlign=top;fontStyle=1;fillColor=#b1ddf0;strokeColor=#10739e;" vertex="1" parent="1">
          <mxGeometry x="400" y="380" width="380" height="70" as="geometry" />
        </mxCell>
        <mxCell id="yXcYpfGis_X_akv3bQqg-46" value="- Motifs lower activation barriers for reactions&#xa;- Functions systematically direct assembly&#xa;- Reaction pathways become more efficient&#xa;- e.g. acid/base catalysis — groups accelerate bond formation" style="whiteSpace=wrap;strokeWidth=2;align=left;verticalAlign=top;fontStyle=1;fillColor=#fad7ac;strokeColor=#b46504;" vertex="1" parent="1">
          <mxGeometry x="400" y="300" width="380" height="70" as="geometry" />
        </mxCell>
        <mxCell id="yXcYpfGis_X_akv3bQqg-47" value="- Motifs enhance their own production&#xa;- Self-reinforcing loops stabilize lineages&#xa;- Persistence now coupled to self-maintenance&#xa;- e.g. formose cycle — sugars regenerate their own precursors" style="whiteSpace=wrap;strokeWidth=2;align=left;verticalAlign=top;fontSize=12;fontStyle=1;fillColor=#fad9d5;strokeColor=#ae4132;" vertex="1" parent="1">
          <mxGeometry x="400" y="220" width="380" height="70" as="geometry" />
        </mxCell>
        <mxCell id="yXcYpfGis_X_akv3bQqg-48" value="- Dedicated copying mechanisms arise&#xa;- Information becomes explicitly heritable&#xa;- Darwinian evolution proper begins&#xa;- e.g. RNA templates — sequence copying enables heredity" style="whiteSpace=wrap;strokeWidth=2;align=left;verticalAlign=top;fontSize=12;fontStyle=1;fillColor=#d5e8d4;gradientColor=#97d077;strokeColor=#82b366;" vertex="1" parent="1">
          <mxGeometry x="400" y="140" width="380" height="70" as="geometry" />
        </mxCell>
        <mxCell id="yXcYpfGis_X_akv3bQqg-54" value="&lt;font style=&quot;font-size: 23px;&quot;&gt;Evolutionary Ladder Hypothesis&lt;/font&gt;" style="text;whiteSpace=wrap;html=1;labelBorderColor=none;fontSize=20;fontStyle=1" vertex="1" parent="1">
          <mxGeometry x="235" y="33" width="384" height="36" as="geometry" />
        </mxCell>
      </root>
    </mxGraphModel>
  </diagram>
</mxfile>
